<?xml version="1.0" encoding="utf-8"?>
<!-- Generator: Adobe Illustrator 16.0.0, SVG Export Plug-In . SVG Version: 6.00 Build 0)  -->
<!DOCTYPE svg PUBLIC "-//W3C//DTD SVG 1.1//EN" "http://www.w3.org/Graphics/SVG/1.1/DTD/svg11.dtd">
<svg version="1.1" xmlns="http://www.w3.org/2000/svg" xmlns:xlink="http://www.w3.org/1999/xlink" x="0px" y="0px" width="536px"
	 height="54px" viewBox="0 0 536 54" enable-background="new 0 0 536 54" xml:space="preserve">
<g id="Background">
</g>
<g id="Guides">
</g>
<g id="Foreground">
	<g>
		<g>
			<path fill-rule="evenodd" clip-rule="evenodd" fill="#0074BC" d="M85.433,35.812c1.856-0.008,3.349-0.462,4.476-1.362
				c1.127-0.899,1.707-2.194,1.737-3.882v-0.048c-0.009-1.447-0.475-2.55-1.396-3.311c-0.921-0.76-2.245-1.35-3.971-1.769
				c-1.433-0.351-2.408-0.677-2.924-0.977s-0.759-0.716-0.729-1.249v-0.048c0.001-0.421,0.186-0.77,0.553-1.046
				c0.367-0.276,0.909-0.419,1.624-0.429c0.714,0.004,1.439,0.153,2.174,0.445c0.735,0.292,1.478,0.7,2.227,1.224l1.933-2.804
				c-0.858-0.692-1.812-1.223-2.86-1.591c-1.049-0.369-2.191-0.555-3.425-0.559c-1.76,0.021-3.179,0.486-4.258,1.398
				c-1.079,0.912-1.634,2.145-1.665,3.701v0.048c0.006,1.106,0.238,1.987,0.696,2.643c0.458,0.656,1.105,1.173,1.942,1.552
				s1.827,0.706,2.969,0.982c1.38,0.348,2.303,0.68,2.767,0.995s0.679,0.701,0.644,1.158v0.048c-0.006,0.5-0.223,0.891-0.65,1.17
				c-0.427,0.28-1.025,0.422-1.793,0.426c-0.962-0.007-1.856-0.192-2.682-0.556s-1.616-0.863-2.372-1.5l-2.199,2.636
				c1.027,0.905,2.157,1.583,3.389,2.032C82.875,35.588,84.138,35.813,85.433,35.812z"/>
			<path fill-rule="evenodd" clip-rule="evenodd" fill="#0074BC" d="M92.76,35.57h3.796l1.547-3.796h7.156l1.547,3.796h3.893
				l-7.253-17.044h-3.433L92.76,35.57z M99.433,28.489L101.681,23l2.249,5.489H99.433z"/>
			<polygon fill-rule="evenodd" clip-rule="evenodd" fill="#0074BC" points="112.968,35.57 116.688,35.57 116.688,30.396 
				118.647,28.366 123.894,35.57 128.367,35.57 121.162,25.828 128.053,18.647 123.556,18.647 116.688,26.045 116.688,18.647 
				112.968,18.647 			"/>
			<path fill-rule="evenodd" clip-rule="evenodd" fill="#0074BC" d="M128.348,35.57h3.795l1.547-3.796h7.156l1.547,3.796h3.893
				l-7.253-17.044h-3.433L128.348,35.57z M135.021,28.489L137.269,23l2.248,5.489H135.021z"/>
			<path fill-rule="evenodd" clip-rule="evenodd" fill="#0074BC" d="M148.556,35.57h3.721v-5.417h2.927l3.629,5.417h4.349
				l-4.132-6.044c1.092-0.396,1.965-1.029,2.619-1.897s0.989-1.984,1.005-3.349v-0.048c-0.001-0.801-0.125-1.528-0.371-2.18
				s-0.606-1.215-1.079-1.688c-0.557-0.558-1.249-0.982-2.075-1.274s-1.779-0.439-2.856-0.441h-7.736V35.57z M152.277,26.869v-4.863
				h3.701c0.916,0.001,1.63,0.205,2.144,0.611c0.514,0.406,0.775,1.009,0.783,1.809v0.048c-0.005,0.725-0.254,1.302-0.747,1.733
				c-0.493,0.431-1.195,0.652-2.108,0.663H152.277z"/>
			<polygon fill-rule="evenodd" clip-rule="evenodd" fill="#0074BC" points="169.918,35.57 173.639,35.57 173.639,28.825 
				180.143,18.647 175.912,18.647 171.802,25.441 167.766,18.647 163.414,18.647 169.918,28.898 			"/>
			<path fill-rule="evenodd" clip-rule="evenodd" fill="#0074BC" d="M178.281,35.57h3.795l1.547-3.796h7.156l1.547,3.796h3.893
				l-7.253-17.044h-3.433L178.281,35.57z M184.953,28.489L187.202,23l2.248,5.489H184.953z"/>
			<path fill-rule="evenodd" clip-rule="evenodd" fill="#0074BC" d="M205.731,35.57h8.051c1.936,0,3.469-0.387,4.6-1.16
				c1.131-0.773,1.708-1.934,1.734-3.48v-0.048c-0.01-1.122-0.292-2.006-0.849-2.652s-1.329-1.148-2.316-1.507
				c0.621-0.329,1.142-0.783,1.563-1.363c0.422-0.58,0.641-1.343,0.658-2.289v-0.048c0-0.58-0.097-1.108-0.29-1.584
				c-0.193-0.477-0.483-0.907-0.87-1.293c-0.486-0.485-1.102-0.855-1.848-1.111c-0.747-0.255-1.605-0.384-2.576-0.386h-7.857V35.57z
				 M215.476,23.699c-0.009,0.625-0.251,1.081-0.726,1.368c-0.475,0.286-1.128,0.427-1.959,0.423h-3.436v-3.582h3.677
				c0.79,0.003,1.394,0.154,1.812,0.454c0.417,0.3,0.628,0.729,0.632,1.289V23.699z M216.419,30.421v0.048
				c-0.007,0.627-0.241,1.091-0.701,1.392c-0.461,0.3-1.106,0.45-1.936,0.448h-4.427v-3.727h4.306
				c0.951,0.005,1.649,0.17,2.095,0.493C216.203,29.398,216.424,29.847,216.419,30.421z"/>
			<path fill-rule="evenodd" clip-rule="evenodd" fill="#0074BC" d="M231.18,17.314h3.53v-3.068h-3.53V17.314z M225.906,17.314h3.53
				v-3.068h-3.53V17.314z M230.259,35.836c2.299,0.002,4.104-0.63,5.416-1.897c1.312-1.267,1.981-3.181,2.006-5.741v-9.551h-3.721
				v9.696c-0.01,1.344-0.334,2.356-0.974,3.038c-0.639,0.682-1.532,1.023-2.679,1.025c-1.146-0.002-2.04-0.354-2.679-1.058
				c-0.639-0.703-0.963-1.745-0.974-3.125v-9.575h-3.721v9.672c0.021,2.492,0.673,4.368,1.958,5.626
				C226.176,35.204,227.965,35.834,230.259,35.836z"/>
			<polygon fill-rule="evenodd" clip-rule="evenodd" fill="#0074BC" points="246.231,35.57 249.952,35.57 249.952,28.825 
				256.457,18.647 252.225,18.647 248.116,25.441 244.08,18.647 239.727,18.647 246.231,28.898 			"/>
			<path fill-rule="evenodd" clip-rule="evenodd" fill="#0074BC" d="M266.757,17.314h3.529v-3.068h-3.529V17.314z M261.483,17.314
				h3.53v-3.068h-3.53V17.314z M265.836,35.836c2.299,0.002,4.104-0.63,5.416-1.897c1.312-1.267,1.981-3.181,2.006-5.741v-9.551
				h-3.721v9.696c-0.01,1.344-0.334,2.356-0.974,3.038c-0.639,0.682-1.532,1.023-2.679,1.025c-1.147-0.002-2.04-0.354-2.679-1.058
				c-0.639-0.703-0.963-1.745-0.974-3.125v-9.575h-3.721v9.672c0.021,2.492,0.673,4.368,1.958,5.626
				C261.753,35.204,263.542,35.834,265.836,35.836z"/>
			<polygon fill-rule="evenodd" clip-rule="evenodd" fill="#0074BC" points="277.045,35.57 280.766,35.57 280.766,30.396 
				282.724,28.366 287.971,35.57 292.444,35.57 285.239,25.828 292.13,18.647 287.633,18.647 280.766,26.045 280.766,18.647 
				277.045,18.647 			"/>
			<path fill-rule="evenodd" clip-rule="evenodd" fill="#0074BC" d="M300.136,39.753l1.621-4.014
				c1.521-0.187,2.733-0.72,3.638-1.599s1.367-2.071,1.39-3.576v-0.048c-0.009-1.446-0.474-2.549-1.396-3.31s-2.245-1.35-3.97-1.768
				c-1.433-0.351-2.408-0.677-2.925-0.977c-0.517-0.299-0.759-0.716-0.729-1.248v-0.048c0.001-0.421,0.186-0.77,0.553-1.046
				c0.368-0.276,0.909-0.419,1.624-0.429c0.714,0.004,1.439,0.153,2.174,0.444c0.735,0.292,1.478,0.7,2.227,1.224l1.933-2.804
				c-0.858-0.692-1.812-1.223-2.861-1.591c-1.049-0.369-2.191-0.555-3.425-0.559c-1.76,0.021-3.179,0.486-4.258,1.398
				s-1.634,2.146-1.665,3.701v0.048c0.006,1.106,0.238,1.987,0.696,2.642s1.105,1.172,1.942,1.551
				c0.837,0.379,1.827,0.706,2.969,0.982c1.38,0.348,2.303,0.679,2.767,0.994s0.679,0.701,0.644,1.158v0.048
				c-0.006,0.5-0.223,0.89-0.65,1.169c-0.427,0.28-1.025,0.422-1.793,0.426c-0.962-0.007-1.856-0.192-2.682-0.556
				s-1.616-0.863-2.372-1.499l-2.199,2.636c0.804,0.724,1.679,1.301,2.625,1.729c0.946,0.428,1.924,0.714,2.934,0.858l-1.886,2.781
				L300.136,39.753z"/>
			<polygon fill-rule="evenodd" clip-rule="evenodd" fill="#0074BC" points="310.065,35.57 322.95,35.57 322.95,32.261 
				313.762,32.261 313.762,28.703 321.741,28.703 321.741,25.394 313.762,25.394 313.762,21.957 322.829,21.957 322.829,18.647 
				310.065,18.647 			"/>
			<polygon fill-rule="evenodd" clip-rule="evenodd" fill="#0074BC" points="326.256,35.57 329.977,35.57 329.977,28.776 
				336.847,28.776 336.847,35.57 340.567,35.57 340.567,18.647 336.847,18.647 336.847,25.345 329.977,25.345 329.977,18.647 
				326.256,18.647 			"/>
			<path fill-rule="evenodd" clip-rule="evenodd" fill="#0074BC" d="M344.799,35.57h3.721V18.647h-3.721V35.57z M344.848,17.317
				h3.624v-3.071h-3.624V17.317z"/>
			<path fill-rule="evenodd" clip-rule="evenodd" fill="#0074BC" d="M352.778,35.57h3.721v-5.417h2.927l3.628,5.417h4.35
				l-4.132-6.044c1.092-0.396,1.964-1.029,2.618-1.897s0.989-1.984,1.006-3.349v-0.048c-0.001-0.801-0.125-1.528-0.372-2.18
				s-0.605-1.215-1.078-1.688c-0.557-0.558-1.249-0.982-2.075-1.274c-0.827-0.292-1.779-0.439-2.857-0.441h-7.736V35.57z
				 M356.499,26.869v-4.863h3.701c0.916,0.001,1.63,0.205,2.144,0.611s0.775,1.009,0.783,1.809v0.048
				c-0.005,0.725-0.254,1.302-0.747,1.733c-0.492,0.431-1.195,0.652-2.107,0.663H356.499z"/>
			<path fill-rule="evenodd" clip-rule="evenodd" fill="#0074BC" d="M377.49,35.57h8.051c1.936,0,3.468-0.387,4.599-1.16
				c1.131-0.773,1.709-1.934,1.734-3.48v-0.048c-0.009-1.122-0.292-2.006-0.849-2.652c-0.556-0.646-1.328-1.148-2.316-1.507
				c0.621-0.329,1.142-0.783,1.563-1.363c0.422-0.58,0.641-1.343,0.658-2.289v-0.048c0-0.58-0.097-1.108-0.29-1.584
				c-0.193-0.477-0.483-0.907-0.87-1.293c-0.486-0.485-1.103-0.855-1.849-1.111c-0.746-0.255-1.604-0.384-2.575-0.386h-7.857V35.57z
				 M387.235,23.699c-0.009,0.625-0.251,1.081-0.726,1.368c-0.475,0.286-1.128,0.427-1.959,0.423h-3.435v-3.582h3.677
				c0.79,0.003,1.394,0.154,1.811,0.454c0.418,0.3,0.629,0.729,0.632,1.289V23.699z M388.178,30.421v0.048
				c-0.007,0.627-0.241,1.091-0.702,1.392c-0.46,0.3-1.105,0.45-1.935,0.448h-4.427v-3.727h4.306
				c0.951,0.005,1.649,0.17,2.096,0.493C387.961,29.398,388.182,29.847,388.178,30.421z"/>
			<polygon fill-rule="evenodd" clip-rule="evenodd" fill="#0074BC" points="394.959,35.57 407.844,35.57 407.844,32.261 
				398.656,32.261 398.656,28.703 406.635,28.703 406.635,25.394 398.656,25.394 398.656,21.957 407.723,21.957 407.723,18.647 
				394.959,18.647 			"/>
			<polygon fill-rule="evenodd" clip-rule="evenodd" fill="#0074BC" points="411.15,35.57 423.309,35.57 423.309,32.188 
				414.871,32.188 414.871,18.647 411.15,18.647 			"/>
			<polygon fill-rule="evenodd" clip-rule="evenodd" fill="#0074BC" points="426.116,35.57 439,35.57 439,32.261 429.813,32.261 
				429.813,28.703 437.792,28.703 437.792,25.394 429.813,25.394 429.813,21.957 438.88,21.957 438.88,18.647 426.116,18.647 			"/>
			<path fill-rule="evenodd" clip-rule="evenodd" fill="#0074BC" d="M442.307,35.57h6.599c1.786-0.016,3.352-0.395,4.697-1.135
				s2.394-1.746,3.148-3.015c0.753-1.27,1.137-2.707,1.149-4.312v-0.048c-0.012-1.604-0.396-3.037-1.149-4.299
				c-0.754-1.262-1.803-2.259-3.148-2.992c-1.345-0.732-2.911-1.106-4.697-1.122h-6.599V35.57z M448.906,22.005
				c1.546,0.025,2.778,0.501,3.695,1.427c0.917,0.926,1.387,2.151,1.409,3.676v0.048c-0.022,1.523-0.492,2.74-1.409,3.652
				s-2.149,1.379-3.695,1.403h-2.878V22.005H448.906z"/>
			<path fill-rule="evenodd" clip-rule="evenodd" fill="#0074BC" d="M461.383,35.57h3.721V18.647h-3.721V35.57z M461.431,17.317
				h3.624v-3.071h-3.624V17.317z"/>
			<polygon fill-rule="evenodd" clip-rule="evenodd" fill="#0074BC" points="474.125,35.57 477.846,35.57 477.846,28.825 
				484.351,18.647 480.119,18.647 476.01,25.441 471.974,18.647 467.621,18.647 474.125,28.898 			"/>
			<polygon fill-rule="evenodd" clip-rule="evenodd" fill="#0074BC" points="486.671,35.57 499.556,35.57 499.556,32.261 
				490.368,32.261 490.368,28.703 498.347,28.703 498.347,25.394 490.368,25.394 490.368,21.957 499.435,21.957 499.435,18.647 
				486.671,18.647 			"/>
			<path fill-rule="evenodd" clip-rule="evenodd" fill="#0074BC" d="M508.881,35.812c1.856-0.008,3.348-0.462,4.476-1.362
				c1.127-0.899,1.706-2.194,1.737-3.882v-0.048c-0.009-1.447-0.474-2.55-1.396-3.311c-0.921-0.76-2.245-1.35-3.97-1.769
				c-1.433-0.351-2.408-0.677-2.924-0.977s-0.76-0.716-0.729-1.249v-0.048c0.001-0.421,0.186-0.77,0.553-1.046
				c0.368-0.276,0.909-0.419,1.624-0.429c0.714,0.004,1.439,0.153,2.174,0.445c0.735,0.292,1.478,0.7,2.227,1.224l1.933-2.804
				c-0.858-0.692-1.812-1.223-2.861-1.591c-1.049-0.369-2.191-0.555-3.425-0.559c-1.759,0.021-3.179,0.486-4.258,1.398
				c-1.079,0.912-1.634,2.145-1.664,3.701v0.048c0.006,1.106,0.238,1.987,0.696,2.643c0.458,0.656,1.105,1.173,1.942,1.552
				s1.826,0.706,2.969,0.982c1.381,0.348,2.303,0.68,2.767,0.995c0.464,0.315,0.679,0.701,0.645,1.158v0.048
				c-0.007,0.5-0.224,0.891-0.65,1.17c-0.427,0.28-1.025,0.422-1.793,0.426c-0.962-0.007-1.856-0.192-2.682-0.556
				s-1.616-0.863-2.372-1.5l-2.199,2.636c1.027,0.905,2.157,1.583,3.39,2.032C506.323,35.588,507.587,35.813,508.881,35.812z"/>
			<path fill-rule="evenodd" clip-rule="evenodd" fill="#0074BC" d="M518.529,35.57h3.721V18.647h-3.721V35.57z M518.578,17.317
				h3.624v-3.071h-3.624V17.317z"/>
		</g>
		<g>
			<path fill="#0074BC" d="M18.848,26.457c0-2.392,0.433-4.682,1.226-6.798c1.8-0.172,3.686,0.107,5.465,0.884
				c3.694,1.613,5.973,5.023,6.267,8.557h-2.554l0.239-3.558c-0.203-0.355-0.432-0.698-0.685-1.027l0.38,4.585H27.16l0.397-5.918
				c-0.318-0.279-0.658-0.539-1.019-0.778l0.556,6.696h-2.026l0.487-7.266c-0.157-0.08-0.319-0.155-0.483-0.227
				c-0.237-0.104-0.475-0.197-0.715-0.281l0.646,7.774h-2.027l0.528-8.031c-0.396-0.1-0.795-0.175-1.192-0.225l0.604,8.256h-2.028
				l0.617-8.324c-0.462-0.02-0.921-0.006-1.374,0.04l0.688,8.284h-1.792C18.909,28.235,18.848,27.353,18.848,26.457z"/>
			<path fill="#0074BC" d="M45.303,24.482c-0.21-0.193-0.435-0.359-0.673-0.495c-0.104-0.059-0.209-0.112-0.317-0.158l0.476,5.27
				h-1.611l0.401-5.482c-0.351-0.054-0.711-0.048-1.071,0.019l0.494,5.463H41.39l0.375-5.234c-0.312,0.134-0.618,0.318-0.91,0.549
				l0.373,4.686h-1.615l0.299-3.696c-0.261,0.356-0.5,0.766-0.707,1.228l0.223,2.468h-1.686c0.051-0.443,0.134-0.892,0.252-1.341
				c1.063-4.065,4.346-5.967,7.022-4.443c1.779,1.014,2.822,3.313,2.882,5.784h-1.145l0.129-1.771
				c-0.145-0.575-0.351-1.108-0.609-1.581l0.303,3.352h-1.611L45.303,24.482z"/>
			<path fill="#B5D334" d="M28.904,43.475c-1.383-0.765-2.663-1.693-3.813-2.757c2.751-2.206,6.051-4.267,9.809-6.015
				c4.165-1.937,8.264-3.196,12.041-3.832c-3.466,1.138-7.066,2.979-10.438,5.421C33.531,38.445,30.951,40.911,28.904,43.475z"/>
			<path fill="#B5D334" d="M36.943,45.856c-2.352-0.167-4.589-0.751-6.637-1.678c1.876-2.304,4.261-4.572,7.109-6.635
				c6.196-4.488,12.638-6.594,17.527-6.435c-3.232,0.5-6.739,1.975-9.892,4.258C41.021,38.286,38.075,42.161,36.943,45.856z"/>
			<path fill="#20B24B" d="M56.909,32.477c-2.522,7.732-9.77,13.339-18.344,13.429c1.048-3.112,3.563-6.51,7.397-9.288
				C49.72,33.896,53.654,32.559,56.909,32.477z"/>
			<path fill="#20B24B" d="M41.334,30.611c-2.351,0.697-4.735,1.595-7.09,2.691c-3.827,1.78-7.304,3.95-10.244,6.326
				c-2.099-2.273-3.662-5.047-4.489-8.122L41.334,30.611z"/>
			<path fill="#0074BC" d="M48.904,29.296c-0.181,0.018-0.363,0.037-0.545,0.058c-0.004-0.468-0.038-0.93-0.1-1.382l0.997-0.693
				l-0.589-2.414l-1.052,0.673c-0.235-0.571-0.525-1.105-0.867-1.587l0.652-1.501l-1.587-1.677l-0.7,1.576l-0.152-0.097
				c-0.435-0.264-0.885-0.453-1.343-0.569l-0.047-1.966l-2.274-0.161l0.077,2.123c-0.578,0.142-1.146,0.391-1.686,0.741
				l-1.017-1.787l-2.102,1.92l1.132,1.833c-0.425,0.609-0.792,1.303-1.085,2.072l-1.734-0.656l-0.766,3.324l0.857,0.266h-1.758
				c-0.047-0.765-0.171-1.522-0.368-2.262l1.742-0.913l-1.344-3.326l-1.874,0.869c-0.508-0.806-1.118-1.57-1.824-2.268l1.055-2.054
				l-3.254-2.541l-1.166,2.183c-0.104-0.052-0.208-0.103-0.314-0.153c-0.894-0.423-1.817-0.742-2.755-0.96l-0.372-2.879
				c3.523-4.574,9.061-7.523,15.292-7.523c10.472,0,18.993,8.329,19.265,18.705l-0.362,0.29c-0.124-0.441-0.283-0.853-0.476-1.219
				l0.462-1.183l-0.911-1.244l-0.488,1.232l-0.088-0.069c-0.252-0.189-0.516-0.321-0.786-0.395l0.05-1.492l-1.336-0.035
				l-0.043,1.593c-0.344,0.123-0.684,0.327-1.011,0.605L51.8,23.05l-1.273,1.485l0.559,1.333c-0.267,0.462-0.505,0.986-0.703,1.563
				l-0.94-0.462L48.904,29.296z"/>
			<path fill="#0074BC" d="M56.482,29.1c-0.303-0.044-0.611-0.083-0.922-0.117l0.222-3.559c-0.098-0.105-0.202-0.196-0.31-0.273
				c-0.092-0.066-0.189-0.119-0.29-0.161l0.317,3.986c-0.315-0.033-0.634-0.06-0.958-0.082l0.25-4
				c-0.204-0.02-0.417,0.004-0.633,0.075l0.314,3.92c-0.313-0.02-0.631-0.034-0.951-0.044l0.226-3.688
				c-0.178,0.106-0.355,0.244-0.529,0.414l0.236,3.272c-0.313-0.008-0.63-0.012-0.95-0.01l0.18-2.604
				c-0.147,0.222-0.287,0.473-0.416,0.752l0.16,1.852c-0.382,0.003-0.768,0.014-1.158,0.03c0.035-0.181,0.075-0.361,0.122-0.543
				c0.782-3.064,2.77-4.578,4.306-3.487c1.011,0.72,1.564,2.404,1.547,4.264h-0.671l0.109-1.751
				c-0.094-0.424-0.225-0.81-0.385-1.144l0.229,2.895H56.482z"/>
			<path fill="#0074BC" d="M17.087,14.383l-0.554,1.115c-0.272,0.548-0.198,1.037,0.233,1.25l0.007,0.004
				c0.345,0.171,0.636,0.017,0.873-0.236c-0.012,0.24,0.057,0.524,0.383,0.687l0.007,0.003c0.161,0.081,0.323,0.089,0.481,0.039
				c0.211-0.074,0.406-0.259,0.548-0.545l0.531-1.069L17.087,14.383z M18.132,16.896c-0.294-0.146-0.331-0.46-0.161-0.801
				l0.369-0.743l0.865,0.43l-0.379,0.764c-0.178,0.359-0.438,0.476-0.685,0.353L18.132,16.896z M16.933,16.474l-0.007-0.003
				c-0.281-0.139-0.331-0.459-0.142-0.84l0.418-0.843l0.886,0.44l-0.394,0.792C17.478,16.459,17.206,16.61,16.933,16.474z
				 M17.472,21.398l-0.079,0.363l0.352,0.077l0.079-0.363L17.472,21.398z M17.632,20.667l-0.079,0.363l0.352,0.077l0.079-0.364
				L17.632,20.667z M14.501,20.555c-0.149,0.685,0.165,1.232,0.964,1.406l1.569,0.341l0.067-0.309l-1.593-0.346
				c-0.599-0.131-0.834-0.518-0.724-1.023c0.113-0.521,0.515-0.765,1.105-0.636l1.573,0.342l0.067-0.309l-1.593-0.347
				C15.163,19.506,14.648,19.878,14.501,20.555z M13.75,25.9l0.004,0.32l1.113-0.014l1.704,1.144l-0.005-0.369l-1.413-0.935
				l1.389-0.962L16.538,24.7l-1.679,1.187L13.75,25.9z M17.218,31.054l0.088,0.361l0.35-0.085l-0.089-0.361L17.218,31.054z
				 M17.04,30.326l0.088,0.362l0.35-0.085l-0.089-0.361L17.04,30.326z M14.177,31.598c0.166,0.681,0.689,1.036,1.482,0.842
				l1.56-0.381l-0.075-0.306l-1.583,0.386c-0.595,0.145-0.977-0.101-1.099-0.602c-0.127-0.517,0.127-0.914,0.715-1.057l1.564-0.381
				l-0.075-0.306l-1.583,0.386C14.312,30.366,14.012,30.925,14.177,31.598z M15.469,35.918l0.14,0.283l0.674-0.335l0.807,0.265
				l-0.736,1.569l0.177,0.355l0.855-1.824l1.632,0.53l-0.182-0.366L16.621,35.7l1.498-0.745l-0.141-0.283L15.469,35.918z
				 M18.063,41.667l0.624-0.158c0.347,0.374,0.804,0.462,1.156,0.179l0.006-0.005c0.334-0.269,0.331-0.636,0.045-1.208
				c-0.284-0.564-0.259-0.769-0.053-0.935l0.006-0.005c0.197-0.159,0.499-0.103,0.727,0.181c0.181,0.225,0.272,0.485,0.27,0.821
				l0.306-0.01c0-0.364-0.094-0.665-0.35-0.982c-0.334-0.415-0.83-0.514-1.172-0.238l-0.007,0.006
				c-0.359,0.289-0.336,0.65-0.04,1.24c0.272,0.536,0.245,0.738,0.042,0.902l-0.006,0.005c-0.215,0.173-0.527,0.105-0.763-0.188
				c-0.244-0.303-0.317-0.604-0.294-0.997l-0.304-0.007c-0.022,0.394,0.064,0.73,0.271,1.037l-0.546,0.044L18.063,41.667z
				 M21.401,44.546l1.594,1.283l0.18-0.224l-1.347-1.085l0.615-0.765l1.191,0.96l0.181-0.225l-1.191-0.959l0.601-0.746l1.332,1.073
				l0.181-0.224l-1.578-1.271L21.401,44.546z M25.598,47.704l0.283,0.14l0.561-1.129l1.449,0.72l-0.562,1.129l0.283,0.14
				l1.247-2.509l-0.283-0.141l-0.554,1.115l-1.449-0.72l0.554-1.115l-0.283-0.141L25.598,47.704z M30.682,49.935l0.305,0.083
				l0.732-2.705l-0.305-0.083L30.682,49.935z M31.448,46.981l0.371,0.1l0.094-0.347l-0.371-0.1L31.448,46.981z M34.12,50.794
				l0.315,0.028l0.096-1.085l0.798,0.071l0.714,1.157L36.429,51l-0.756-1.216c0.446-0.041,0.788-0.283,0.83-0.746l0-0.008
				c0.019-0.219-0.043-0.422-0.166-0.569c-0.16-0.191-0.426-0.319-0.769-0.349l-1.2-0.107L34.12,50.794z M34.556,49.456l0.1-1.134
				l0.862,0.077c0.451,0.04,0.696,0.271,0.666,0.614l-0.001,0.008c-0.032,0.359-0.35,0.548-0.769,0.511L34.556,49.456z
				 M43.097,50.594l1.194-0.354c0.587-0.175,0.894-0.563,0.756-1.023l-0.002-0.008c-0.11-0.369-0.421-0.477-0.769-0.478
				c0.184-0.155,0.345-0.399,0.241-0.749l-0.002-0.008c-0.051-0.172-0.155-0.296-0.3-0.378c-0.198-0.104-0.467-0.12-0.773-0.028
				l-1.144,0.34L43.097,50.594z M44.223,48.117c0.094,0.315-0.11,0.555-0.475,0.664l-0.795,0.237l-0.276-0.925l0.818-0.244
				c0.384-0.114,0.646-0.004,0.726,0.261L44.223,48.117z M44.732,49.281l0.002,0.008c0.089,0.299-0.11,0.555-0.518,0.676
				l-0.902,0.269l-0.282-0.948l0.848-0.252C44.35,48.894,44.645,48.989,44.732,49.281z M48.286,48.851l1.786-0.998l-0.141-0.251
				l-1.511,0.844l-0.479-0.857l1.335-0.747l-0.141-0.251l-1.335,0.746l-0.467-0.835l1.493-0.834l-0.14-0.251l-1.768,0.989
				L48.286,48.851z M52.778,46.136l1.416-1.257L54,44.661l-1.18,1.047l-1.667-1.878l-0.236,0.209L52.778,46.136z M56.461,42.691
				l1.206-1.652l-0.232-0.17l-1.02,1.398l-0.793-0.579l0.901-1.236l-0.232-0.169l-0.901,1.235l-0.773-0.564l1.007-1.381
				l-0.232-0.169l-1.194,1.636L56.461,42.691z M59.454,38.366l0.39-0.891c0.353-0.808,0.036-1.61-0.688-1.926l-0.007-0.003
				c-0.723-0.316-1.52-0.001-1.873,0.807l-0.39,0.891L59.454,38.366z M57.543,36.468c0.285-0.649,0.914-0.868,1.482-0.619
				l0.007,0.003c0.568,0.248,0.828,0.855,0.544,1.505l-0.264,0.602L57.28,37.07L57.543,36.468z M61.493,33.101l0.067-0.309
				l-2.738-0.596l-0.067,0.308L61.493,33.101z M58.505,32.483l0.082-0.375l-0.352-0.076l-0.082,0.375L58.505,32.483z M62.239,28.749
				l0.013-0.32l-1.112-0.042l-1.645-1.229l-0.014,0.368l1.364,1.005l-1.436,0.891l-0.015,0.384l1.736-1.101L62.239,28.749z
				 M62.237,24.146l-0.385-2.009l-0.283,0.054l0.326,1.699l-0.964,0.185l-0.288-1.502l-0.282,0.054l0.288,1.502l-0.94,0.181
				l-0.322-1.68l-0.283,0.055l0.381,1.99L62.237,24.146z M60.782,18.188c-0.21-0.516-0.651-0.768-1.095-0.586l-0.007,0.003
				c-0.397,0.162-0.5,0.515-0.389,1.145c0.111,0.621,0.028,0.811-0.216,0.91l-0.008,0.003c-0.233,0.095-0.507-0.044-0.645-0.382
				c-0.108-0.267-0.122-0.543-0.023-0.864l-0.296-0.078c-0.104,0.349-0.1,0.664,0.054,1.042c0.202,0.494,0.648,0.73,1.056,0.563
				l0.008-0.002c0.426-0.174,0.507-0.527,0.393-1.177c-0.108-0.592-0.024-0.778,0.217-0.876l0.007-0.002
				c0.256-0.105,0.536,0.05,0.678,0.398c0.147,0.36,0.13,0.669-0.003,1.04l0.289,0.094C60.951,18.993,60.951,18.6,60.782,18.188z
				 M59.066,14.673l-0.161-0.271l-2.412,1.426l0.16,0.271L59.066,14.673z M56.456,16.254l-0.195-0.331l-0.31,0.183l0.195,0.331
				L56.456,16.254z"/>
			<path fill="#0074BC" d="M25.375,10.294c0.489-0.356,0.648-0.859,0.32-1.309l-0.005-0.006c-0.288-0.395-0.667-0.371-1.213-0.156
				c-0.465,0.185-0.597,0.208-0.706,0.058l-0.005-0.006c-0.08-0.11-0.043-0.271,0.148-0.41c0.191-0.139,0.45-0.199,0.751-0.206
				L24.65,7.696c-0.365-0.017-0.721,0.085-1.051,0.326c-0.462,0.338-0.594,0.85-0.295,1.26l0.005,0.006
				c0.328,0.45,0.714,0.362,1.256,0.146c0.45-0.179,0.574-0.171,0.666-0.045l0.005,0.007c0.096,0.132,0.033,0.303-0.171,0.452
				c-0.259,0.189-0.55,0.238-0.877,0.218l-0.037,0.567C24.599,10.677,25.031,10.544,25.375,10.294z M27.747,8.475l0.576-0.251
				l-0.018-0.679l1.086-0.475l0.487,0.473l0.59-0.258L28.237,5.18l-0.521,0.228L27.747,8.475z M28.289,6.958l-0.023-0.982
				l0.705,0.684L28.289,6.958z M32.475,6.53l0.605-0.116l-0.162-0.841l0.256-0.391l1.078,1.008l0.728-0.14l-1.476-1.36l0.897-1.383
				l-0.731,0.14l-0.886,1.418l-0.231-1.204l-0.605,0.116L32.475,6.53z M36.727,5.775l0.628,0.024l0.28-0.619l1.184,0.045
				l0.233,0.638l0.644,0.024l-1.093-2.866L38.034,3L36.727,5.775z M37.876,4.645l0.407-0.894l0.337,0.922L37.876,4.645z
				 M41.836,6.087l0.59,0.176l0.256-0.86l0.464,0.138l0.321,1.032l0.69,0.205l-0.37-1.154c0.379-0.024,0.694-0.228,0.823-0.662
				l0.002-0.008c0.075-0.253,0.058-0.488-0.047-0.683c-0.125-0.229-0.361-0.403-0.702-0.505l-1.228-0.365L41.836,6.087z
				 M42.837,4.882l0.23-0.772l0.587,0.174c0.288,0.086,0.426,0.269,0.35,0.522l-0.002,0.008c-0.067,0.226-0.278,0.331-0.566,0.246
				L42.837,4.882z M46.823,7.824l0.545,0.287l0.521-0.988l1.739-0.988l-0.62-0.327l-1.126,0.677l-0.066-1.307l-0.638-0.336
				l0.16,2.003L46.823,7.824z M49.532,9.34l0.49,0.395l0.594-0.329l0.923,0.743l-0.195,0.65l0.502,0.405l0.835-2.952l-0.443-0.356
				L49.532,9.34z M51.128,9.12l0.86-0.474l-0.28,0.941L51.128,9.12z"/>
		</g>
	</g>
</g>
</svg>
